<svg width="20" height="20" viewBox="0 0 20 20" fill="none" xmlns="http://www.w3.org/2000/svg">
<path opacity="0.4" d="M18.3337 6.50835V13.4834C18.3337 16.5167 16.5253 18.325 13.492 18.325H6.50866C3.47533 18.3334 1.66699 16.525 1.66699 13.4917V6.50835C1.66699 3.47502 3.47533 1.66669 6.50866 1.66669H13.4837C16.5253 1.66669 18.3337 3.47502 18.3337 6.50835Z" fill="#80E19C" style="fill:#80E19C;fill:color(display-p3 0.5036 0.8816 0.6135);fill-opacity:1;"/>
<path d="M10.4415 4.55833L14.0165 8.13333C14.2581 8.375 14.2581 8.775 14.0165 9.01667C13.7748 9.25833 13.3748 9.25833 13.1331 9.01667L10.6248 6.50833V15C10.6248 15.3417 10.3415 15.625 9.9998 15.625C9.65814 15.625 9.3748 15.3417 9.3748 15V6.50833L6.86647 9.01667C6.6248 9.25833 6.2248 9.25833 5.98314 9.01667C5.85814 8.89167 5.7998 8.73333 5.7998 8.575C5.7998 8.41667 5.86647 8.25 5.98314 8.13333L9.55814 4.55833C9.6748 4.44167 9.83314 4.375 9.9998 4.375C10.1665 4.375 10.3248 4.44167 10.4415 4.55833Z" fill="#2D643D" style="fill:#2D643D;fill:color(display-p3 0.1765 0.3922 0.2392);fill-opacity:1;"/>
</svg>
