<svg width="41" height="40" viewBox="0 0 41 40" fill="none" xmlns="http://www.w3.org/2000/svg">
<path d="M37.4166 35.917H4.08325C3.81413 35.917 3.58325 35.6861 3.58325 35.417C3.58325 35.1479 3.81413 34.917 4.08325 34.917H37.4166C37.6857 34.917 37.9166 35.1479 37.9166 35.417C37.9166 35.6861 37.6857 35.917 37.4166 35.917Z" fill="#292D32" stroke="#2CD1E0" style="fill:#292D32;fill:color(display-p3 0.1608 0.1765 0.1961);fill-opacity:1;stroke:#2CD1E0;stroke:color(display-p3 0.1728 0.8204 0.8793);stroke-opacity:1;" stroke-width="1.5"/>
<path d="M23.25 35.4163H18.25V6.66634C18.25 5.88887 18.414 5.3747 18.6439 5.07842C18.8292 4.83955 19.1782 4.58301 20 4.58301H21.5C22.3218 4.58301 22.6708 4.83955 22.8561 5.07842C23.086 5.3747 23.25 5.88887 23.25 6.66634V35.4163Z" fill="#2CD1E0" stroke="#2CD1E0" style="fill:#2CD1E0;fill:color(display-p3 0.1728 0.8204 0.8793);fill-opacity:1;stroke:#2CD1E0;stroke:color(display-p3 0.1728 0.8204 0.8793);stroke-opacity:1;" stroke-width="2.5"/>
<path opacity="0.4" d="M11.1667 35.4163H7V16.6663C7 15.8657 7.15172 15.3273 7.36235 15.0218C7.51864 14.7952 7.77758 14.583 8.41667 14.583H9.75C10.3891 14.583 10.648 14.7952 10.8043 15.0218C11.0149 15.3273 11.1667 15.8657 11.1667 16.6663V35.4163Z" fill="#2CD1E0" stroke="#2CD1E0" style="fill:#2CD1E0;fill:color(display-p3 0.1728 0.8204 0.8793);fill-opacity:1;stroke:#2CD1E0;stroke:color(display-p3 0.1728 0.8204 0.8793);stroke-opacity:1;" stroke-width="2.5"/>
<path opacity="0.4" d="M34.4999 35.417H30.3333V25.0003C30.3333 24.1997 30.485 23.6612 30.6956 23.3558C30.8519 23.1292 31.1108 22.917 31.7499 22.917H33.0833C33.7223 22.917 33.9813 23.1292 34.1376 23.3558C34.3482 23.6612 34.4999 24.1997 34.4999 25.0003V35.417Z" fill="#2CD1E0" stroke="#2CD1E0" style="fill:#2CD1E0;fill:color(display-p3 0.1728 0.8204 0.8793);fill-opacity:1;stroke:#2CD1E0;stroke:color(display-p3 0.1728 0.8204 0.8793);stroke-opacity:1;" stroke-width="2.5"/>
</svg>
