<svg width="20" height="20" viewBox="0 0 20 20" fill="none" xmlns="http://www.w3.org/2000/svg">
<path opacity="0.25" d="M9.99935 18.3334C14.6017 18.3334 18.3327 14.6025 18.3327 10.0001C18.3327 5.39771 14.6017 1.66675 9.99935 1.66675C5.39698 1.66675 1.66602 5.39771 1.66602 10.0001C1.66602 14.6025 5.39698 18.3334 9.99935 18.3334Z" fill="#7859ED" style="fill:#7859ED;fill:color(display-p3 0.4706 0.3490 0.9294);fill-opacity:1;"/>
<path d="M10.8841 10L12.8008 8.08338C13.0424 7.84172 13.0424 7.44172 12.8008 7.20005C12.5591 6.95838 12.1591 6.95838 11.9174 7.20005L10.0008 9.11671L8.08411 7.20005C7.84245 6.95838 7.44245 6.95838 7.20078 7.20005C6.95911 7.44172 6.95911 7.84172 7.20078 8.08338L9.11745 10L7.20078 11.9167C6.95911 12.1584 6.95911 12.5584 7.20078 12.8C7.32578 12.925 7.48411 12.9834 7.64245 12.9834C7.80078 12.9834 7.95911 12.925 8.08411 12.8L10.0008 10.8834L11.9174 12.8C12.0424 12.925 12.2008 12.9834 12.3591 12.9834C12.5174 12.9834 12.6758 12.925 12.8008 12.8C13.0424 12.5584 13.0424 12.1584 12.8008 11.9167L10.8841 10Z" fill="#7859ED" style="fill:#7859ED;fill:color(display-p3 0.4706 0.3490 0.9294);fill-opacity:1;"/>
</svg>
