<svg width="41" height="40" viewBox="0 0 41 40" fill="none" xmlns="http://www.w3.org/2000/svg">
<path opacity="0.4" d="M34.25 11.6663V28.333C34.25 30.6414 33.6727 32.3741 32.6048 33.5241C31.5525 34.6574 29.8451 35.4163 27.1667 35.4163H13.8333C11.1549 35.4163 9.44747 34.6574 8.39516 33.5241C7.32728 32.3741 6.75 30.6414 6.75 28.333V11.6663C6.75 9.35796 7.32728 7.62526 8.39516 6.47524C9.44747 5.34198 11.1549 4.58301 13.8333 4.58301H27.1667C29.8451 4.58301 31.5525 5.34198 32.6048 6.47524C33.6727 7.62526 34.25 9.35796 34.25 11.6663Z" fill="#F7BF4F" stroke="#F7BF4F" style="fill:#F7BF4F;fill:color(display-p3 0.9686 0.7490 0.3098);fill-opacity:1;stroke:#F7BF4F;stroke:color(display-p3 0.9686 0.7490 0.3098);stroke-opacity:1;" stroke-width="2.5"/>
<path d="M28.0001 14.1667C26.1625 14.1667 24.6755 12.685 24.6668 10.8495C24.6755 12.6824 26.1651 14.1667 28.0001 14.1667Z" fill="#F7BF4F" stroke="#F7BF4F" style="fill:#F7BF4F;fill:color(display-p3 0.9686 0.7490 0.3098);fill-opacity:1;stroke:#F7BF4F;stroke:color(display-p3 0.9686 0.7490 0.3098);stroke-opacity:1;" stroke-width="2.5"/>
<mask id="path-3-inside-1_641_42977" fill="white">
<path d="M20.4999 22.917H13.8333C13.1499 22.917 12.5833 22.3503 12.5833 21.667C12.5833 20.9837 13.1499 20.417 13.8333 20.417H20.4999C21.1833 20.417 21.7499 20.9837 21.7499 21.667C21.7499 22.3503 21.1833 22.917 20.4999 22.917Z"/>
</mask>
<path d="M20.4999 22.917H13.8333C13.1499 22.917 12.5833 22.3503 12.5833 21.667C12.5833 20.9837 13.1499 20.417 13.8333 20.417H20.4999C21.1833 20.417 21.7499 20.9837 21.7499 21.667C21.7499 22.3503 21.1833 22.917 20.4999 22.917Z" fill="#F7BF4F" style="fill:#F7BF4F;fill:color(display-p3 0.9686 0.7490 0.3098);fill-opacity:1;"/>
<path d="M20.4999 20.417H13.8333V25.417H20.4999V20.417ZM13.8333 20.417C14.5306 20.417 15.0833 20.9696 15.0833 21.667H10.0833C10.0833 23.731 11.7692 25.417 13.8333 25.417V20.417ZM15.0833 21.667C15.0833 22.3644 14.5306 22.917 13.8333 22.917V17.917C11.7692 17.917 10.0833 19.6029 10.0833 21.667H15.0833ZM13.8333 22.917H20.4999V17.917H13.8333V22.917ZM20.4999 22.917C19.8025 22.917 19.2499 22.3644 19.2499 21.667H24.2499C24.2499 19.6029 22.564 17.917 20.4999 17.917V22.917ZM19.2499 21.667C19.2499 20.9696 19.8025 20.417 20.4999 20.417V25.417C22.564 25.417 24.2499 23.731 24.2499 21.667H19.2499Z" fill="#F7BF4F" style="fill:#F7BF4F;fill:color(display-p3 0.9686 0.7490 0.3098);fill-opacity:1;" mask="url(#path-3-inside-1_641_42977)"/>
<path d="M27.1666 28.833H13.8333C13.5641 28.833 13.3333 28.6021 13.3333 28.333C13.3333 28.0639 13.5641 27.833 13.8333 27.833H27.1666C27.4357 27.833 27.6666 28.0639 27.6666 28.333C27.6666 28.6021 27.4357 28.833 27.1666 28.833Z" fill="#F7BF4F" stroke="#F7BF4F" style="fill:#F7BF4F;fill:color(display-p3 0.9686 0.7490 0.3098);fill-opacity:1;stroke:#F7BF4F;stroke:color(display-p3 0.9686 0.7490 0.3098);stroke-opacity:1;" stroke-width="1.5"/>
</svg>
