<svg width="40" height="40" viewBox="0 0 40 40" fill="none" xmlns="http://www.w3.org/2000/svg">
<path opacity="0.4" d="M32.467 20.3334C31.2043 20.3334 30.0352 20.8303 29.1825 21.6999C28.2345 22.6317 27.6874 23.9742 27.8219 25.4112C28.0376 27.9489 30.3178 29.6667 32.667 29.6667H34.5837V30.4C34.5837 33.1597 32.3266 35.4167 29.567 35.4167H10.4337C7.67402 35.4167 5.41699 33.1597 5.41699 30.4V19.1834C5.41699 16.4237 7.67402 14.1667 10.4337 14.1667H29.567C32.3266 14.1667 34.5837 16.4237 34.5837 19.1834V20.3334H32.467Z" fill="#4FB6F7" stroke="#4FB6F7" style="fill:#4FB6F7;fill:color(display-p3 0.3098 0.7137 0.9686);fill-opacity:1;stroke:#4FB6F7;stroke:color(display-p3 0.3098 0.7137 0.9686);stroke-opacity:1;" stroke-width="2.5"/>
<path d="M23.5003 6.58336V11.6667H10.4337C8.50881 11.6667 6.74909 12.3964 5.41699 13.5934V13.0667C5.41699 11.6008 6.31419 10.3013 7.67547 9.78596C7.67565 9.78589 7.67584 9.78582 7.67602 9.78575L20.9018 4.7886C20.9028 4.78821 20.9038 4.78783 20.9049 4.78745C22.165 4.32233 23.5003 5.25022 23.5003 6.58336Z" fill="#4FB6F7" stroke="#4FB6F7" style="fill:#4FB6F7;fill:color(display-p3 0.3098 0.7137 0.9686);fill-opacity:1;stroke:#4FB6F7;stroke:color(display-p3 0.3098 0.7137 0.9686);stroke-opacity:1;" stroke-width="2.5"/>
<path d="M30.3126 25.1962L30.312 25.1888L30.3113 25.1815C30.249 24.527 30.4967 23.9107 30.9401 23.4778L30.9515 23.4667L30.9626 23.4554C31.3422 23.0654 31.8685 22.8334 32.467 22.8334H35.9049C36.1743 22.8508 36.3503 23.0614 36.3503 23.2833V26.7167C36.3503 26.9386 36.1743 27.1493 35.9049 27.1667H32.667C31.4185 27.1667 30.4008 26.2545 30.3126 25.1962Z" fill="#4FB6F7" stroke="#4FB6F7" style="fill:#4FB6F7;fill:color(display-p3 0.3098 0.7137 0.9686);fill-opacity:1;stroke:#4FB6F7;stroke:color(display-p3 0.3098 0.7137 0.9686);stroke-opacity:1;" stroke-width="2.5"/>
<path d="M23.3337 20.5H11.667C11.3979 20.5 11.167 20.2691 11.167 20C11.167 19.7309 11.3979 19.5 11.667 19.5H23.3337C23.6028 19.5 23.8337 19.7309 23.8337 20C23.8337 20.2691 23.6028 20.5 23.3337 20.5Z" fill="#4FB6F7" stroke="#4FB6F7" style="fill:#4FB6F7;fill:color(display-p3 0.3098 0.7137 0.9686);fill-opacity:1;stroke:#4FB6F7;stroke:color(display-p3 0.3098 0.7137 0.9686);stroke-opacity:1;" stroke-width="1.5"/>
</svg>
