<svg width="19" height="18" viewBox="0 0 19 18" fill="none" xmlns="http://www.w3.org/2000/svg">
<path opacity="0.4" d="M9.875 1.5C14.0171 1.5 17.375 4.85786 17.375 9C17.375 13.1421 14.0171 16.5 9.875 16.5C5.73286 16.5 2.375 13.1421 2.375 9C2.375 4.85786 5.73286 1.5 9.875 1.5Z" fill="#7859ED" style="fill:#7859ED;fill:color(display-p3 0.4706 0.3490 0.9294);fill-opacity:1;"/>
<path d="M9.875 7.6875C10.1825 7.6875 10.4375 7.9425 10.4375 8.25V12C10.4375 12.3075 10.1825 12.5625 9.875 12.5625C9.5675 12.5625 9.3125 12.3075 9.3125 12V8.25C9.3125 7.9425 9.5675 7.6875 9.875 7.6875Z" fill="#7859ED" style="fill:#7859ED;fill:color(display-p3 0.4706 0.3490 0.9294);fill-opacity:1;"/>
<path d="M10.565 6.28509C10.5275 6.37509 10.475 6.45759 10.4075 6.53259C10.3325 6.60009 10.25 6.65259 10.16 6.69009C9.98 6.76509 9.77 6.76509 9.59 6.69009C9.5 6.65259 9.4175 6.60009 9.3425 6.53259C9.275 6.45759 9.2225 6.37509 9.185 6.28509C9.1475 6.19509 9.125 6.09759 9.125 6.00009C9.125 5.90259 9.1475 5.80509 9.185 5.71509C9.2225 5.61759 9.275 5.54259 9.3425 5.46759C9.4175 5.40009 9.5 5.34759 9.59 5.31009C9.68 5.27259 9.7775 5.25009 9.875 5.25009C9.9725 5.25009 10.07 5.27259 10.16 5.31009C10.25 5.34759 10.3325 5.40009 10.4075 5.46759C10.475 5.54259 10.5275 5.61759 10.565 5.71509C10.6025 5.80509 10.625 5.90259 10.625 6.00009C10.625 6.09759 10.6025 6.19509 10.565 6.28509Z" fill="#7859ED" style="fill:#7859ED;fill:color(display-p3 0.4706 0.3490 0.9294);fill-opacity:1;"/>
</svg>
