<svg width="40" height="40" viewBox="0 0 40 40" fill="none" xmlns="http://www.w3.org/2000/svg">
<path opacity="0.4" d="M29.2588 11.6967C29.1141 11.684 28.9691 11.684 28.8244 11.6967C26.9567 11.5936 25.4833 10.0495 25.4833 8.14967C25.4833 6.18721 27.0764 4.58301 29.0499 4.58301C31.0111 4.58301 32.6144 6.17403 32.6166 8.14568C32.6023 10.0512 31.124 11.5937 29.2588 11.6967Z" fill="#4FB6F7" stroke="#4FB6F7" style="fill:#4FB6F7;fill:color(display-p3 0.3098 0.7137 0.9686);fill-opacity:1;stroke:#4FB6F7;stroke:color(display-p3 0.3098 0.7137 0.9686);stroke-opacity:1;" stroke-width="2.5"/>
<path opacity="0.4" d="M33.9551 23.4606L33.9544 23.461C32.7704 24.2539 31.1666 24.6977 29.5098 24.7422C29.8129 23.6836 29.9713 22.5719 29.9832 21.4294L29.9833 21.4294V21.4164C29.9833 20.2119 29.8107 19.0376 29.4709 17.9314C31.1451 17.9712 32.7478 18.4151 33.942 19.2078L33.942 19.2078L33.946 19.2105C35.0016 19.9053 35.3592 20.6978 35.3604 21.329C35.3615 21.9616 35.0053 22.7582 33.9551 23.4606Z" fill="#4FB6F7" stroke="#4FB6F7" style="fill:#4FB6F7;fill:color(display-p3 0.3098 0.7137 0.9686);fill-opacity:1;stroke:#4FB6F7;stroke:color(display-p3 0.3098 0.7137 0.9686);stroke-opacity:1;" stroke-width="2.5"/>
<path opacity="0.4" d="M11.1256 11.6967C10.9809 11.684 10.8358 11.684 10.6912 11.6967C8.82601 11.5937 7.34765 10.0512 7.33338 8.14567C7.33554 6.17402 8.93891 4.58301 10.9 4.58301C12.8735 4.58301 14.4667 6.18721 14.4667 8.14967C14.4667 10.0495 12.9933 11.5936 11.1256 11.6967Z" fill="#4FB6F7" stroke="#4FB6F7" style="fill:#4FB6F7;fill:color(display-p3 0.3098 0.7137 0.9686);fill-opacity:1;stroke:#4FB6F7;stroke:color(display-p3 0.3098 0.7137 0.9686);stroke-opacity:1;" stroke-width="2.5"/>
<path opacity="0.4" d="M5.71506 18.7913L5.71507 18.7913L5.71866 18.7889C7.08011 17.8728 8.96181 17.3995 10.8622 17.43C10.4059 18.6698 10.1666 20.0137 10.1666 21.4167C10.1666 22.7628 10.394 24.0563 10.8154 25.2624C8.94086 25.281 7.09776 24.8005 5.71353 23.891C4.55276 23.1191 4.07495 22.1812 4.07495 21.3417C4.07495 20.5018 4.55319 19.5634 5.71506 18.7913Z" fill="#4FB6F7" stroke="#4FB6F7" style="fill:#4FB6F7;fill:color(display-p3 0.3098 0.7137 0.9686);fill-opacity:1;stroke:#4FB6F7;stroke:color(display-p3 0.3098 0.7137 0.9686);stroke-opacity:1;" stroke-width="1.5"/>
<path d="M20.2 26.45C20.0667 26.4333 19.9167 26.4333 19.7667 26.45C16.7 26.35 14.25 23.8333 14.25 20.7333C14.25 17.5667 16.8 15 19.9833 15C23.15 15 25.7167 17.5667 25.7167 20.7333C25.7167 23.8333 23.2833 26.35 20.2 26.45Z" fill="#6BB4F1" style="fill:#6BB4F1;fill:color(display-p3 0.4196 0.7059 0.9451);fill-opacity:1;"/>
<path d="M14.7834 29.9004C12.2667 31.5837 12.2667 34.3504 14.7834 36.0171C17.65 37.9337 22.35 37.9337 25.2167 36.0171C27.7334 34.3337 27.7334 31.5671 25.2167 29.9004C22.3667 27.9837 17.6667 27.9837 14.7834 29.9004Z" fill="#6BB4F1" style="fill:#6BB4F1;fill:color(display-p3 0.4196 0.7059 0.9451);fill-opacity:1;"/>
</svg>
