<svg width="24" height="24" viewBox="0 0 24 24" fill="none" xmlns="http://www.w3.org/2000/svg">
<path opacity="0.24" d="M16.1696 10.5974C15.625 10.5067 15.1453 10.8956 15.0676 11.4272C14.912 12.5551 14.4063 13.5664 13.6284 14.3443C11.8393 16.1335 9.06489 16.315 7.05535 14.9277H8.02771C8.55926 14.9277 9.00007 14.4869 9.00007 13.9554C9.00007 13.4238 8.55926 12.983 8.02771 12.983H4.56611C4.03455 12.983 3.59375 13.4238 3.59375 13.9554V17.417C3.59375 17.9485 4.03455 18.3894 4.56611 18.3894C5.09766 18.3894 5.53846 17.9485 5.53846 17.417V16.1983C6.83494 17.2484 8.40366 17.8059 9.98536 17.8059C11.8004 17.8059 13.6155 17.1188 15.0027 15.7316C16.0788 14.6555 16.766 13.2682 16.9864 11.7124C17.0771 11.1549 16.7011 10.6622 16.1696 10.5974Z" fill="#7859ED" style="fill:#7859ED;fill:color(display-p3 0.4706 0.3490 0.9294);fill-opacity:1;"/>
<path d="M3.95664 10.792C4.43633 10.792 4.85119 10.4419 4.91602 9.96218C5.07159 8.83422 5.57724 7.82296 6.35512 7.04506C8.14426 5.2559 10.9187 5.07437 12.9283 6.46162H11.9559C11.4243 6.46162 10.9835 6.90243 10.9835 7.43399C10.9835 7.96556 11.4243 8.40637 11.9559 8.40637H15.4175C15.949 8.40637 16.3898 7.96556 16.3898 7.43399V3.97237C16.3898 3.44081 15.949 3 15.4175 3C14.8859 3 14.4451 3.44081 14.4451 3.97237V5.19108C11.6577 2.93518 7.57382 3.07777 4.99384 5.6578C3.91777 6.73389 3.2306 8.12111 3.0102 9.67691C2.93241 10.2085 3.30841 10.7012 3.83996 10.779C3.86589 10.7919 3.91774 10.792 3.95664 10.792Z" fill="#7859ED" style="fill:#7859ED;fill:color(display-p3 0.4706 0.3490 0.9294);fill-opacity:1;"/>
</svg>
