<svg width="25" height="24" viewBox="0 0 25 24" fill="none" xmlns="http://www.w3.org/2000/svg">
<path d="M8.0769 17.1868L9.74004 18.6602V16.4383V5.0612C9.74199 5.05908 9.74463 5.05643 9.74816 5.05328C9.77217 5.03181 9.82765 5 9.91783 5C9.99513 5 10.0555 5.02871 10.0904 5.05932C10.1017 5.06924 10.108 5.07691 10.1113 5.0818V18.9201C10.1036 18.9299 10.0796 18.9549 10.0213 18.9801C9.96558 18.9985 9.94047 19 9.91783 19C9.87542 19 9.84382 18.992 9.8288 18.9861C9.76583 18.9613 9.74943 18.9461 9.74869 18.9454L9.74867 18.9454L9.08553 19.6939L9.74867 18.9454L5.1295 14.853C5.15806 14.8339 5.21063 14.8122 5.28519 14.8122C5.37367 14.8122 5.43118 14.8427 5.45436 14.8633L8.0769 17.1868ZM9.73521 5.06741C9.73517 5.06741 9.73537 5.06701 9.73591 5.06623L9.73521 5.06741ZM10.1146 5.08792C10.1146 5.08794 10.1142 5.08721 10.1137 5.08569C10.1145 5.08714 10.1147 5.0879 10.1146 5.08792Z" fill="#7859ED" stroke="#7859ED" style="fill:#7859ED;fill:color(display-p3 0.4706 0.3490 0.9294);fill-opacity:1;stroke:#7859ED;stroke:color(display-p3 0.4706 0.3490 0.9294);stroke-opacity:1;" stroke-width="2"/>
<path opacity="0.24" d="M14.1113 5.08049C14.12 5.06968 14.1476 5.04138 14.2167 5.01422C14.265 4.99526 14.3343 4.99526 14.3825 5.01422C14.4458 5.03908 14.4626 5.05436 14.4636 5.05528L14.4636 5.05532L19.0926 9.14721C19.0591 9.17134 19.0079 9.1913 18.9348 9.1913C18.8506 9.1913 18.7956 9.16481 18.763 9.13598L16.1345 6.81251L14.4722 5.34307V7.56174V18.9327C14.4697 18.9355 14.4662 18.9389 14.4617 18.9429C14.4306 18.9704 14.3713 19 14.2918 19C14.2123 19 14.1529 18.9704 14.1219 18.9429C14.1173 18.9389 14.1139 18.9355 14.1113 18.9327V5.08049ZM14.105 18.9245C14.1051 18.9245 14.1055 18.9251 14.1061 18.9263C14.1053 18.9251 14.105 18.9245 14.105 18.9245ZM14.4785 18.9245C14.4786 18.9245 14.4783 18.9251 14.4775 18.9263C14.478 18.9251 14.4785 18.9245 14.4785 18.9245Z" fill="#7859ED" stroke="#7859ED" style="fill:#7859ED;fill:color(display-p3 0.4706 0.3490 0.9294);fill-opacity:1;stroke:#7859ED;stroke:color(display-p3 0.4706 0.3490 0.9294);stroke-opacity:1;" stroke-width="2"/>
</svg>
