<svg width="41" height="40" viewBox="0 0 41 40" fill="none" xmlns="http://www.w3.org/2000/svg">
<path opacity="0.4" d="M8.34184 29.1673L8.34174 29.1672C7.11406 28.4584 6.3501 27.139 6.3501 25.6997V14.2997C6.3501 12.8825 7.10972 11.558 8.34622 10.8296L18.2417 5.11555C18.2418 5.11554 18.2418 5.11552 18.2418 5.1155C19.4691 4.40704 20.9938 4.40346 22.2444 5.11705C22.2451 5.11747 22.2459 5.11789 22.2466 5.11831L32.1373 10.8296C33.3757 11.5591 34.1334 12.868 34.1334 14.2997V25.6997C34.1334 27.1169 33.3738 28.4414 32.1372 29.1698L22.2418 34.8839C21.0145 35.5924 19.4896 35.596 18.239 34.8823C18.2383 34.8819 18.2376 34.8815 18.2369 34.8811L8.34184 29.1673Z" fill="#E66FF7" stroke="#E66FF7" style="fill:#E66FF7;fill:color(display-p3 0.9014 0.4369 0.9667);fill-opacity:1;stroke:#E66FF7;stroke:color(display-p3 0.9014 0.4369 0.9667);stroke-opacity:1;" stroke-width="2.5"/>
<path d="M22.8834 16.1167C22.8834 17.571 21.7044 18.75 20.25 18.75C18.7957 18.75 17.6167 17.571 17.6167 16.1167C17.6167 14.6623 18.7957 13.4834 20.25 13.4834C21.7044 13.4834 22.8834 14.6623 22.8834 16.1167Z" fill="#E66FF7" stroke="#E66FF7" style="fill:#E66FF7;fill:color(display-p3 0.9014 0.4369 0.9667);fill-opacity:1;stroke:#E66FF7;stroke:color(display-p3 0.9014 0.4369 0.9667);stroke-opacity:1;" stroke-width="2.5"/>
<path d="M20.2501 23.583C22.4145 23.583 24.1951 24.5591 25.0627 25.847C25.2648 26.1485 25.048 26.5163 24.7168 26.5163H15.7834C15.4521 26.5163 15.2353 26.1482 15.4378 25.8466L14.4001 25.1497L15.437 25.8478C16.3044 24.5595 18.0852 23.583 20.2501 23.583Z" fill="#E66FF7" stroke="#E66FF7" style="fill:#E66FF7;fill:color(display-p3 0.9014 0.4369 0.9667);fill-opacity:1;stroke:#E66FF7;stroke:color(display-p3 0.9014 0.4369 0.9667);stroke-opacity:1;" stroke-width="2.5"/>
</svg>
