<svg width="10" height="12" viewBox="0 0 10 12" fill="none" xmlns="http://www.w3.org/2000/svg">
<path d="M5.44147 0.558333L9.01647 4.13333C9.25814 4.375 9.25814 4.775 9.01647 5.01667C8.7748 5.25833 8.3748 5.25833 8.13314 5.01667L5.6248 2.50833V11C5.6248 11.3417 5.34147 11.625 4.9998 11.625C4.65814 11.625 4.3748 11.3417 4.3748 11V2.50833L1.86647 5.01667C1.6248 5.25833 1.2248 5.25833 0.983138 5.01667C0.858138 4.89167 0.799805 4.73333 0.799805 4.575C0.799805 4.41667 0.866471 4.25 0.983138 4.13333L4.55814 0.558333C4.6748 0.441666 4.83314 0.375 4.9998 0.375C5.16647 0.375 5.3248 0.441666 5.44147 0.558333Z" fill="#2D643D" style="fill:#2D643D;fill:color(display-p3 0.1765 0.3922 0.2392);fill-opacity:1;"/>
</svg>
